<?xml version="1.0" encoding="UTF-8" standalone="no"?>
<!DOCTYPE svg PUBLIC "-//W3C//DTD SVG 1.1//EN"
 "http://www.w3.org/Graphics/SVG/1.1/DTD/svg11.dtd">
<!-- Generated by graphviz version 2.43.0 (0)
 -->
<!-- Title: %3 Pages: 1 -->
<svg width="285pt" height="576pt"
 viewBox="0.00 0.00 284.95 576.00" xmlns="http://www.w3.org/2000/svg" xmlns:xlink="http://www.w3.org/1999/xlink">
<g id="graph0" class="graph" transform="scale(0.47 0.47) rotate(0) translate(4 1223)">
<title>%3</title>
<polygon fill="white" stroke="transparent" points="-4,4 -4,-1223 603,-1223 603,4 -4,4"/>
<!-- CardTypes -->
<g id="node1" class="node">
<title>CardTypes</title>
<polygon fill="lightblue" stroke="transparent" points="9.5,-24 9.5,-43 590.5,-43 590.5,-24 9.5,-24"/>
<text text-anchor="start" x="259" y="-30.8" font-family="Times,serif" font-weight="bold" font-size="14.00">CardTypes</text>
<text text-anchor="start" x="11.5" y="-10.8" font-family="Times,serif" font-size="14.00">union of NUMBERED, SKIP, REVERSE, DRAW_CARD, WILD_CARD, WILD_DRAW</text>
<polygon fill="none" stroke="black" points="8,-4 8,-44 591,-44 591,-4 8,-4"/>
</g>
<!-- Deck -->
<g id="node2" class="node">
<title>Deck</title>
<polygon fill="lightblue" stroke="transparent" points="83.5,-275 83.5,-294 280.5,-294 280.5,-275 83.5,-275"/>
<text text-anchor="start" x="162" y="-281.8" font-family="Times,serif" font-weight="bold" font-size="14.00">Deck</text>
<text text-anchor="start" x="85.5" y="-261.8" font-family="Times,serif" font-size="14.00">+ cards: CardTypes[]</text>
<text text-anchor="start" x="85.5" y="-242.8" font-family="Times,serif" font-size="14.00">+ discardPile: CardTypes[]</text>
<polygon fill="lightgrey" stroke="transparent" points="83.5,-218 83.5,-237 280.5,-237 280.5,-218 83.5,-218"/>
<text text-anchor="start" x="150.5" y="-223.8" font-family="Times,serif" font-size="14.00">Methods</text>
<text text-anchor="start" x="85.5" y="-204.8" font-family="Times,serif" font-size="14.00">+ startTheGame()</text>
<text text-anchor="start" x="85.5" y="-185.8" font-family="Times,serif" font-size="14.00">+ shuffle(cards)</text>
<text text-anchor="start" x="85.5" y="-166.8" font-family="Times,serif" font-size="14.00">+ drawFromDeck()</text>
<text text-anchor="start" x="85.5" y="-147.8" font-family="Times,serif" font-size="14.00">+ drawCards(n)</text>
<text text-anchor="start" x="85.5" y="-128.8" font-family="Times,serif" font-size="14.00">+ discardCard(card)</text>
<text text-anchor="start" x="85.5" y="-109.8" font-family="Times,serif" font-size="14.00">+ get size</text>
<polygon fill="none" stroke="black" points="82,-103 82,-295 281,-295 281,-103 82,-103"/>
</g>
<!-- Deck&#45;&gt;CardTypes -->
<g id="edge5" class="edge">
<title>Deck&#45;&gt;CardTypes</title>
<path fill="none" stroke="black" d="M241.6,-98.92C249.07,-87.65 256.8,-76.47 264.5,-66 266.86,-62.78 269.41,-59.5 272.02,-56.26"/>
<polygon fill="black" stroke="black" points="274.87,-58.31 278.54,-48.37 269.47,-53.85 274.87,-58.31"/>
<text text-anchor="middle" x="316.5" y="-69.8" font-family="Times,serif" font-size="14.00">contains many</text>
</g>
<!-- Player -->
<g id="node3" class="node">
<title>Player</title>
<polygon fill="lightblue" stroke="transparent" points="316.5,-275 316.5,-294 520.5,-294 520.5,-275 316.5,-275"/>
<text text-anchor="start" x="393.5" y="-281.8" font-family="Times,serif" font-weight="bold" font-size="14.00">Player</text>
<text text-anchor="start" x="318.5" y="-261.8" font-family="Times,serif" font-size="14.00">+ playerName: string</text>
<text text-anchor="start" x="318.5" y="-242.8" font-family="Times,serif" font-size="14.00">+ playerCards: CardTypes[]</text>
<text text-anchor="start" x="318.5" y="-223.8" font-family="Times,serif" font-size="14.00">&#45; unoDeclared: boolean</text>
<polygon fill="lightgrey" stroke="transparent" points="316.5,-199 316.5,-218 520.5,-218 520.5,-199 316.5,-199"/>
<text text-anchor="start" x="387" y="-204.8" font-family="Times,serif" font-size="14.00">Methods</text>
<text text-anchor="start" x="318.5" y="-185.8" font-family="Times,serif" font-size="14.00">+ playCard(index)</text>
<text text-anchor="start" x="318.5" y="-166.8" font-family="Times,serif" font-size="14.00">+ takeCard(card)</text>
<text text-anchor="start" x="318.5" y="-147.8" font-family="Times,serif" font-size="14.00">+ showHand()</text>
<text text-anchor="start" x="318.5" y="-128.8" font-family="Times,serif" font-size="14.00">+ getHandSize()</text>
<text text-anchor="start" x="318.5" y="-109.8" font-family="Times,serif" font-size="14.00">+ sayUno()</text>
<polygon fill="none" stroke="black" points="315.5,-103 315.5,-295 521.5,-295 521.5,-103 315.5,-103"/>
</g>
<!-- Player&#45;&gt;CardTypes -->
<g id="edge4" class="edge">
<title>Player&#45;&gt;CardTypes</title>
<path fill="none" stroke="black" d="M389.46,-98.72C383.62,-87 376.69,-75.76 368.5,-66 364.92,-61.73 360.77,-57.8 356.32,-54.19"/>
<polygon fill="black" stroke="black" points="358.16,-51.2 348.04,-48.07 354,-56.83 358.16,-51.2"/>
<text text-anchor="middle" x="413" y="-69.8" font-family="Times,serif" font-size="14.00">has many</text>
</g>
<!-- Round -->
<g id="node4" class="node">
<title>Round</title>
<polygon fill="lightblue" stroke="transparent" points="187.5,-886.5 187.5,-905.5 411.5,-905.5 411.5,-886.5 187.5,-886.5"/>
<text text-anchor="start" x="273.5" y="-893.3" font-family="Times,serif" font-weight="bold" font-size="14.00">Round</text>
<text text-anchor="start" x="189.5" y="-873.3" font-family="Times,serif" font-size="14.00">+ players: string[]</text>
<text text-anchor="start" x="189.5" y="-854.3" font-family="Times,serif" font-size="14.00">+ unoPlayers: Player[]</text>
<text text-anchor="start" x="189.5" y="-835.3" font-family="Times,serif" font-size="14.00">+ dealer: number</text>
<text text-anchor="start" x="189.5" y="-816.3" font-family="Times,serif" font-size="14.00">+ currentPlayerIndex: number</text>
<text text-anchor="start" x="189.5" y="-797.3" font-family="Times,serif" font-size="14.00">+ direction: 1|&#45;1</text>
<text text-anchor="start" x="189.5" y="-778.3" font-family="Times,serif" font-size="14.00">+ activeColor: string</text>
<text text-anchor="start" x="189.5" y="-759.3" font-family="Times,serif" font-size="14.00">+ deck: Deck</text>
<text text-anchor="start" x="189.5" y="-740.3" font-family="Times,serif" font-size="14.00">&#45; ended: boolean</text>
<text text-anchor="start" x="189.5" y="-721.3" font-family="Times,serif" font-size="14.00">&#45; winnerIndex?: number</text>
<polygon fill="lightgrey" stroke="transparent" points="187.5,-696.5 187.5,-715.5 411.5,-715.5 411.5,-696.5 187.5,-696.5"/>
<text text-anchor="start" x="268" y="-702.3" font-family="Times,serif" font-size="14.00">Methods</text>
<text text-anchor="start" x="189.5" y="-683.3" font-family="Times,serif" font-size="14.00">+ startRound()</text>
<text text-anchor="start" x="189.5" y="-664.3" font-family="Times,serif" font-size="14.00">+ dealCards()</text>
<text text-anchor="start" x="189.5" y="-645.3" font-family="Times,serif" font-size="14.00">+ flipOneCard()</text>
<text text-anchor="start" x="189.5" y="-626.3" font-family="Times,serif" font-size="14.00">+ play(index, chosenColor?)</text>
<text text-anchor="start" x="189.5" y="-607.3" font-family="Times,serif" font-size="14.00">+ draw()</text>
<text text-anchor="start" x="189.5" y="-588.3" font-family="Times,serif" font-size="14.00">+ hasEnded()</text>
<text text-anchor="start" x="189.5" y="-569.3" font-family="Times,serif" font-size="14.00">+ winner()</text>
<text text-anchor="start" x="189.5" y="-550.3" font-family="Times,serif" font-size="14.00">+ score()</text>
<text text-anchor="start" x="189.5" y="-531.3" font-family="Times,serif" font-size="14.00">+ catchUnoFailure(obj)</text>
<text text-anchor="start" x="189.5" y="-512.3" font-family="Times,serif" font-size="14.00">+ sayUno(index)</text>
<text text-anchor="start" x="189.5" y="-493.3" font-family="Times,serif" font-size="14.00">+ playerHand(i)</text>
<text text-anchor="start" x="189.5" y="-474.3" font-family="Times,serif" font-size="14.00">+ drawPile()</text>
<text text-anchor="start" x="189.5" y="-455.3" font-family="Times,serif" font-size="14.00">+ playerInTurn()</text>
<text text-anchor="start" x="189.5" y="-436.3" font-family="Times,serif" font-size="14.00">+ canPlay(i)</text>
<text text-anchor="start" x="189.5" y="-417.3" font-family="Times,serif" font-size="14.00">+ canPlayAny()</text>
<text text-anchor="start" x="189.5" y="-398.3" font-family="Times,serif" font-size="14.00">+ onEnd(callback)</text>
<text text-anchor="start" x="189.5" y="-379.3" font-family="Times,serif" font-size="14.00">+ toMemento()</text>
<text text-anchor="start" x="189.5" y="-360.3" font-family="Times,serif" font-size="14.00">+ fromMemento(m)</text>
<polygon fill="none" stroke="black" points="186.5,-354 186.5,-907 412.5,-907 412.5,-354 186.5,-354"/>
</g>
<!-- Round&#45;&gt;Deck -->
<g id="edge3" class="edge">
<title>Round&#45;&gt;Deck</title>
<path fill="none" stroke="black" d="M222.69,-349.92C218.8,-335.77 215.03,-322.03 211.44,-308.99"/>
<polygon fill="black" stroke="black" points="214.77,-307.87 208.74,-299.16 208.02,-309.73 214.77,-307.87"/>
<text text-anchor="middle" x="239.5" y="-320.8" font-family="Times,serif" font-size="14.00">uses 1</text>
</g>
<!-- Round&#45;&gt;Player -->
<g id="edge2" class="edge">
<title>Round&#45;&gt;Player</title>
<path fill="none" stroke="black" d="M376.96,-349.92C380.88,-335.77 384.69,-322.03 388.3,-308.99"/>
<polygon fill="black" stroke="black" points="391.73,-309.73 391.03,-299.16 384.98,-307.86 391.73,-309.73"/>
<text text-anchor="middle" x="428.5" y="-320.8" font-family="Times,serif" font-size="14.00">contains 2..*</text>
</g>
<!-- Game -->
<g id="node5" class="node">
<title>Game</title>
<polygon fill="lightblue" stroke="transparent" points="208.5,-1194.5 208.5,-1213.5 391.5,-1213.5 391.5,-1194.5 208.5,-1194.5"/>
<text text-anchor="start" x="277" y="-1201.3" font-family="Times,serif" font-weight="bold" font-size="14.00">Game</text>
<text text-anchor="start" x="210.5" y="-1181.3" font-family="Times,serif" font-size="14.00">+ players: string[]</text>
<text text-anchor="start" x="210.5" y="-1162.3" font-family="Times,serif" font-size="14.00">+ scores: number[]</text>
<text text-anchor="start" x="210.5" y="-1143.3" font-family="Times,serif" font-size="14.00">+ targetScore: number</text>
<text text-anchor="start" x="210.5" y="-1124.3" font-family="Times,serif" font-size="14.00">+ currentRound?: Round</text>
<text text-anchor="start" x="210.5" y="-1105.3" font-family="Times,serif" font-size="14.00">+ roundsPlayed: number</text>
<polygon fill="lightgrey" stroke="transparent" points="208.5,-1080.5 208.5,-1099.5 391.5,-1099.5 391.5,-1080.5 208.5,-1080.5"/>
<text text-anchor="start" x="268.5" y="-1086.3" font-family="Times,serif" font-size="14.00">Methods</text>
<text text-anchor="start" x="210.5" y="-1067.3" font-family="Times,serif" font-size="14.00">+ start()</text>
<text text-anchor="start" x="210.5" y="-1048.3" font-family="Times,serif" font-size="14.00">+ playRound()</text>
<text text-anchor="start" x="210.5" y="-1029.3" font-family="Times,serif" font-size="14.00">+ hasWinner()</text>
<text text-anchor="start" x="210.5" y="-1010.3" font-family="Times,serif" font-size="14.00">+ winner()</text>
<text text-anchor="start" x="210.5" y="-991.3" font-family="Times,serif" font-size="14.00">+ toMemento()</text>
<text text-anchor="start" x="210.5" y="-972.3" font-family="Times,serif" font-size="14.00">+ fromMemento(m)</text>
<polygon fill="none" stroke="black" points="207,-966 207,-1215 392,-1215 392,-966 207,-966"/>
</g>
<!-- Game&#45;&gt;Round -->
<g id="edge1" class="edge">
<title>Game&#45;&gt;Round</title>
<path fill="none" stroke="black" d="M299.5,-961.92C299.5,-948.93 299.5,-935.39 299.5,-921.53"/>
<polygon fill="black" stroke="black" points="303,-921.39 299.5,-911.39 296,-921.39 303,-921.39"/>
<text text-anchor="middle" x="346.5" y="-932.8" font-family="Times,serif" font-size="14.00">manages 1..*</text>
</g>
</g>
</svg>
